# xmcd
# Track frame offsets:
# 150
# 20184
# 34283
# 53961
# 68707
# 89221
# 104787
# 125748
# 145432
# 158297
# 170846
# 187574
#
# Disc length: 2707 seconds
# Revision: 0
# Processed by: cddbd v1.5.2PL0 Copyright (c) Steve Scherf et al.
# Submitted via: VisiTrax 2.10.3.257 - For more info visit www.synapsa.com
#
DISCID=b20a910c
DTITLE=Various Artist - compilaltion
DYEAR=2006
DGENRE=
TTITLE0=Urquhart, Felicity - on and on
TTITLE1=Kernigam, Lee - Listen to the Radio
TTITLE2=Collins, Travis - Full Tank
TTITLE3=Steding, Louise - Call of the North
TTITLE4=Libero Vox - Some Music
TTITLE5=Yelaska, Geoff - Nashville Downunder
TTITLE6=Espie, Suzannah - Cruel to Me
TTITLE7=Kernigan, Tania - 30 Something
TTITLE8=Juner, Dale - Livin while I Learn
TTITLE9=Peter Dennehy - Frankie
TTITLE10=Wolverines - Up and done Died
TTITLE11=Mistin - Head over Heels
EXTD=
EXTT0=
EXTT1=
EXTT2=
EXTT3=
EXTT4=
EXTT5=
EXTT6=
EXTT7=
EXTT8=
EXTT9=
EXTT10=
EXTT11=
PLAYORDER=
